<?xml version="1.0" encoding="UTF-8" standalone="no" ?>
<!DOCTYPE svg PUBLIC "-//W3C//DTD SVG 1.1//EN" "http://www.w3.org/Graphics/SVG/1.1/DTD/svg11.dtd">
<svg xmlns="http://www.w3.org/2000/svg" xmlns:xlink="http://www.w3.org/1999/xlink" version="1.1" width="200" height="100" viewBox="0 0 200 100" xml:space="preserve">
<desc>Created with Fabric.js 5.2.4</desc>
<defs>
</defs>
<rect x="0" y="0" width="100%" height="100%" fill="transparent"></rect>
<g transform="matrix(0 0 0 0 0 0)" id="6265606b-d58f-498b-93ae-4958f4461fb3"  >
</g>
<g transform="matrix(1 0 0 1 100 50)" id="fe7cbf3c-67cd-4a7d-9744-1bf8be05b32a"  >
<rect style="stroke: none; stroke-width: 1; stroke-dasharray: none; stroke-linecap: butt; stroke-dashoffset: 0; stroke-linejoin: miter; stroke-miterlimit: 4; fill: rgb(255,255,255); fill-rule: nonzero; opacity: 1; visibility: hidden;" vector-effect="non-scaling-stroke"  x="-100" y="-50" rx="0" ry="0" width="200" height="100" />
</g>
<g transform="matrix(0 0 0 0 0 0)"  >
<g style=""   >
</g>
</g>
<g transform="matrix(0.21 0 0 0.21 104.14 64.22)"  >
<g style="" vector-effect="non-scaling-stroke"   >
		<g transform="matrix(1 0 0 1 0 0)"  >
<rect style="stroke: none; stroke-width: 1; stroke-dasharray: none; stroke-linecap: butt; stroke-dashoffset: 0; stroke-linejoin: miter; stroke-miterlimit: 4; fill: rgb(255,255,255); fill-rule: nonzero; opacity: 1; visibility: hidden;" vector-effect="non-scaling-stroke"  x="-540" y="-540" rx="0" ry="0" width="1080" height="1080" />
</g>
		<g transform="matrix(1 0 0 1 322.86 -29.69)"  >
<path style="stroke: none; stroke-width: 1; stroke-dasharray: none; stroke-linecap: butt; stroke-dashoffset: 0; stroke-linejoin: miter; stroke-miterlimit: 4; fill: rgb(255,255,255); fill-rule: nonzero; opacity: 1;" vector-effect="non-scaling-stroke"  transform=" translate(-460.48, -334.86)" d="M 480.7 306.86 C 468.4571584163677 303.84850980382606 455.55163454328084 305.1298843021659 444.14 310.49 L 444.14 306.28000000000003 L 423.14 306.28000000000003 L 423.14 364.45000000000005 L 444.14 364.45000000000005 L 444.14 322.24000000000007 C 453.25 315.86000000000007 464.2 314.9000000000001 469.61 316.31000000000006 C 472.15969756012777 316.95462317562266 474.388094477675 318.50419423790424 475.88 320.6700000000001 C 476.88 322.06000000000006 476.82 324.6700000000001 476.82 326.6700000000001 L 476.82 364.4600000000001 L 497.82 364.4600000000001 L 497.82 329.6900000000001 C 497.82 329.6900000000001 498.49 311.35000000000014 480.7 306.8600000000001 z" stroke-linecap="round" />
</g>
		<g transform="matrix(1 0 0 1 415.68 -43.11)"  >
<path style="stroke: none; stroke-width: 1; stroke-dasharray: none; stroke-linecap: butt; stroke-dashoffset: 0; stroke-linejoin: miter; stroke-miterlimit: 4; fill: rgb(255,255,255); fill-rule: nonzero; opacity: 1;" vector-effect="non-scaling-stroke"  transform=" translate(-553.3, -327.34)" d="M 595.23 369.69 L 549.27 337.65 L 590.3199999999999 309.46 L 564.0799999999999 309.46 L 531.67 333.27 L 531.67 284.11 L 511.36999999999995 284.11 L 511.36999999999995 370.57 L 531.67 370.57 L 531.67 343.9 L 569.2099999999999 369.69 z" stroke-linecap="round" />
</g>
		<g transform="matrix(1 0 0 1 153.29 -41.54)"  >
<path style="stroke: none; stroke-width: 1; stroke-dasharray: none; stroke-linecap: butt; stroke-dashoffset: 0; stroke-linejoin: miter; stroke-miterlimit: 4; fill: rgb(255,255,255); fill-rule: nonzero; opacity: 1;" vector-effect="non-scaling-stroke"  transform=" translate(-292.58, -321.36)" d="M 327.45 318.86 C 324.68 314.91 315.9 306.61 300.53999999999996 305.73 C 292.1397389315031 305.23288647658745 283.7132696957367 305.4034221635017 275.34 306.24 L 275.34 278.24 L 254.77999999999997 278.24 L 254.77999999999997 359.78000000000003 C 254.7784658113393 360.29028518904875 255.1250382472517 360.7358783209361 255.61999999999998 360.86 C 267.0714624374845 363.3864068204427 278.7738562476875 364.5975777394459 290.5 364.47 C 311.61 364.37 325.32 356.47 328.5 346.11 C 331.34 337.05 330.92 323.83000000000004 327.45 318.86 z M 309.08 327.1 L 309.08 341.56 C 309.0819134556163 341.9754221058134 309.0484593415878 342.3902531197676 308.97999999999996 342.8 C 308.26837663012475 347.75728173614095 304.3995836530628 351.6666706521018 299.45 352.43 C 290.37 354.23 281.63 352.94 275.34 351.78000000000003 L 275.34 316.29 C 279.03999999999996 315.22 291.62 314.41 299.60999999999996 316.75 C 309.29999999999995 319.58 309.08 327.1 309.08 327.1 z" stroke-linecap="round" />
</g>
		<g transform="matrix(1 0 0 1 -82.81 -40.26)"  >
<path style="stroke: none; stroke-width: 1; stroke-dasharray: none; stroke-linecap: butt; stroke-dashoffset: 0; stroke-linejoin: miter; stroke-miterlimit: 4; fill: rgb(255,255,255); fill-rule: nonzero; opacity: 1;" vector-effect="non-scaling-stroke"  transform=" translate(-48.81, -324.32)" d="M 0.05 324.33 C 0.33 319.75 -0.15999999999999998 315.07 0.6900000000000001 310.59999999999997 C 2.56 300.87999999999994 8.95 294.59999999999997 17.610000000000003 290.46 C 28.770000000000003 285.16999999999996 40.72 284.16999999999996 52.85000000000001 284.59 C 62.010000000000005 284.9 71.03 286.21999999999997 79.42000000000002 290.17999999999995 C 91.52000000000001 295.9 98.15000000000002 305.17999999999995 97.58000000000001 318.92999999999995 L 97.58000000000001 330.7699999999999 C 97.83000000000001 343.5799999999999 91.65 352.37999999999994 80.47000000000001 357.8999999999999 C 67.36000000000001 364.36999999999995 53.31000000000002 364.74999999999994 39.13000000000001 363.6499999999999 C 30.13000000000001 362.9599999999999 21.47000000000001 360.9199999999999 13.740000000000009 356.00999999999993 C 4.6400000000000095 350.22999999999996 -0.2599999999999909 342.0799999999999 0.020000000000008455 331.10999999999996 C 0.060000000000008456 328.85999999999996 0.14000000000000845 324.34 0.050000000000008454 324.33 z M 77.14 324.5 C 77.14 321.87 77.14 319.24 77.14 316.61 C 77.04 308.35 73.32000000000001 302.14 66.07 298.34000000000003 C 56.06999999999999 293.1 45.599999999999994 292.97 35.24999999999999 297.03000000000003 C 24.89999999999999 301.09000000000003 20.589999999999993 307.89000000000004 20.589999999999993 319 C 20.589999999999993 323 20.64999999999999 327.07 20.589999999999993 331.11 C 20.439999999999994 339.85 24.529999999999994 346.16 32.14999999999999 349.87 C 42.46999999999999 354.87 53.32999999999999 355.02 63.89999999999999 350.87 C 72.50999999999999 347.51 77.32999999999998 340.87 77.14999999999999 331.25 C 77.08999999999999 329 77.13 326.75 77.13999999999999 324.5 z" stroke-linecap="round" />
</g>
		<g transform="matrix(1 0 0 1 61.08 -29.2)"  >
<path style="stroke: none; stroke-width: 1; stroke-dasharray: none; stroke-linecap: butt; stroke-dashoffset: 0; stroke-linejoin: miter; stroke-miterlimit: 4; fill: rgb(255,255,255); fill-rule: nonzero; opacity: 1;" vector-effect="non-scaling-stroke"  transform=" translate(-202.05, -335.04)" d="M 236.91 343 C 236.91 343 236.91 355.61 237 361.9 C 237 363.57 236.61 364.27 234.79 364.17999999999995 C 229.09 363.88999999999993 223.57 363.17999999999995 218.68 359.84 C 217.8456342132525 359.3533858967638 216.83843774328602 359.26182258131234 215.93 359.59 C 205.05 365.09999999999997 193.63 364.88 182.05 362.86999999999995 C 177.11 362.00999999999993 172.69 360.09999999999997 169.64000000000001 355.86999999999995 C 167.44555257308113 352.71906176357663 166.62174069332718 348.8133055260324 167.3566580967737 345.0444983288708 C 168.09157550022022 341.2756911317092 170.32247684235412 337.96560397243314 173.54000000000002 335.86999999999995 C 179.72000000000003 331.99999999999994 186.71 330.86999999999995 193.77 330.4599999999999 C 200.52 330.0399999999999 207.3 330.0999999999999 214.07000000000002 330.0799999999999 C 215.97000000000003 330.0799999999999 216.70000000000002 329.55999999999995 216.74 327.5399999999999 C 216.9 320.0799999999999 214.60000000000002 316.8799999999999 207.10000000000002 316.5999999999999 C 198.10000000000002 316.2499999999999 189.10000000000002 316.75999999999993 180.04000000000002 316.9199999999999 C 179.04000000000002 316.9199999999999 177.97000000000003 316.9899999999999 176.95000000000002 317.1099999999999 C 174.71 317.3799999999999 174.00000000000003 316.3599999999999 173.95000000000002 314.1999999999999 C 173.87 308.1999999999999 173.78000000000003 308.0499999999999 179.68 307.3799999999999 C 193.16 305.8599999999999 206.68 305.0999999999999 220.18 307.0599999999999 C 227.72 308.1599999999999 233.75 311.58999999999986 236.06 319.45999999999987 C 236.59188125175982 321.45308360452515 236.8608283650327 323.5071671821466 236.86 325.5699999999999 M 216.73000000000002 344.9999999999999 C 216.73000000000002 343.4999999999999 216.63000000000002 341.9999999999999 216.73000000000002 340.4899999999999 C 216.89000000000001 338.5599999999999 216.22000000000003 337.7999999999999 214.22000000000003 337.8799999999999 C 210.00000000000003 338.0399999999999 205.75000000000003 337.8199999999999 201.55000000000004 338.1399999999999 C 198.4683127532102 338.3257979514435 195.42332614050127 338.90723579250164 192.49000000000004 339.8699999999999 C 188.44000000000003 341.26999999999987 187.14000000000004 344.1199999999999 187.75000000000003 348.6199999999999 C 188.20000000000002 351.9699999999999 189.89000000000001 353.8099999999999 194.20000000000002 353.9699999999999 C 199.4313106738555 354.18777679012555 204.6716349938559 353.943496026805 209.86000000000004 353.2399999999999 C 216.77 352.2499999999999 216.72000000000003 351.9999999999999 216.73000000000002 344.9999999999999 z" stroke-linecap="round" />
</g>
		<g transform="matrix(1 0 0 1 232.97 -27.87)"  >
<path style="stroke: none; stroke-width: 1; stroke-dasharray: none; stroke-linecap: butt; stroke-dashoffset: 0; stroke-linejoin: miter; stroke-miterlimit: 4; fill: rgb(255,255,255); fill-rule: nonzero; opacity: 1;" vector-effect="non-scaling-stroke"  transform=" translate(-372.26, -335.04)" d="M 407.12 343 C 407.12 343 407.12 355.61 407.21 361.9 C 407.21 363.57 406.82 364.27 405 364.17999999999995 C 399.3 363.88999999999993 393.79 363.17999999999995 388.89 359.84 C 388.0556342132525 359.3533858967638 387.048437743286 359.26182258131234 386.14 359.59 C 375.26 365.09999999999997 363.84 364.88 352.26 362.86999999999995 C 347.32 362.00999999999993 342.9 360.09999999999997 339.84999999999997 355.86999999999995 C 337.65833940503575 352.71818549867055 336.8361885198503 348.8132838141028 337.57093891149094 345.0453330877407 C 338.30568930313154 341.27738236137856 340.53473027493635 337.9674630889239 343.74999999999994 335.86999999999995 C 349.92999999999995 331.99999999999994 356.91999999999996 330.86999999999995 363.97999999999996 330.4599999999999 C 370.72999999999996 330.0399999999999 377.50999999999993 330.0999999999999 384.28 330.0799999999999 C 386.17999999999995 330.0799999999999 386.90999999999997 329.55999999999995 386.95 327.5399999999999 C 387.11 320.0799999999999 384.81 316.8799999999999 377.31 316.5999999999999 C 368.31 316.2499999999999 359.31 316.75999999999993 350.25 316.9199999999999 C 349.25 316.9199999999999 348.18 316.9899999999999 347.16 317.1099999999999 C 344.92 317.3799999999999 344.16 316.3599999999999 344.16 314.1999999999999 C 344.08000000000004 308.1999999999999 344 308.0499999999999 349.89000000000004 307.3799999999999 C 363.37000000000006 305.8599999999999 376.89000000000004 305.0999999999999 390.39000000000004 307.0599999999999 C 397.93000000000006 308.1599999999999 403.96000000000004 311.58999999999986 406.27000000000004 319.45999999999987 C 406.8018812517599 321.45308360452515 407.0708283650327 323.5071671821466 407.07000000000005 325.5699999999999 M 386.94000000000005 344.9999999999999 C 386.94000000000005 343.4999999999999 386.84000000000003 341.9999999999999 386.94000000000005 340.4899999999999 C 387.11000000000007 338.5599999999999 386.43000000000006 337.7999999999999 384.43000000000006 337.8799999999999 C 380.21000000000004 338.0399999999999 375.96000000000004 337.8199999999999 371.76000000000005 338.1399999999999 C 368.67849138579834 338.32722458705445 365.63368573952147 338.9086278727122 362.70000000000005 339.8699999999999 C 358.65000000000003 341.26999999999987 357.35 344.1199999999999 357.96000000000004 348.6199999999999 C 358.41 351.9699999999999 360.1 353.8099999999999 364.41 353.9699999999999 C 369.6413106738555 354.18777679012555 374.88163499385587 353.943496026805 380.07000000000005 353.2399999999999 C 387.00000000000006 352.2499999999999 386.93000000000006 351.9999999999999 386.94000000000005 344.9999999999999 z" stroke-linecap="round" />
</g>
		<g transform="matrix(1 0 0 1 0 -29.68)"  >
<path style="stroke: none; stroke-width: 1; stroke-dasharray: none; stroke-linecap: butt; stroke-dashoffset: 0; stroke-linejoin: miter; stroke-miterlimit: 4; fill: rgb(255,255,255); fill-rule: nonzero; opacity: 1;" vector-effect="non-scaling-stroke"  transform=" translate(-137.76, -334.55)" d="M 132.16 362.93 L 112.41 362.93 L 112.41 306.53000000000003 L 131.87 306.53000000000003 L 131.87 309.70000000000005 C 132.5579919383321 309.3829025350188 133.2623140371044 309.10250890328007 133.98000000000002 308.86000000000007 C 142.37 305.80000000000007 151.36 306.3300000000001 160.09000000000003 306.1700000000001 C 162.09000000000003 306.1700000000001 163.02000000000004 307.1700000000001 163.03000000000003 309.11000000000007 C 163.03000000000003 311.74000000000007 163.03000000000003 314.37000000000006 163.11000000000004 317.00000000000006 C 163.11000000000004 319.31000000000006 162.36000000000004 320.13000000000005 159.82000000000005 319.57000000000005 C 154.81224048455812 318.35138067191724 149.73196043669932 317.45289590342674 144.60999999999999 316.88000000000005 C 136.33000000000004 316.12000000000006 132.19000000000005 320.20000000000005 132.17000000000004 328.52000000000004 Q 132.17000000000004 344.03000000000003 132.17000000000004 359.52000000000004 z" stroke-linecap="round" />
</g>
		<g transform="matrix(1 0 0 1 -331.92 -53.02)"  >
<radialGradient id="SVGID_15" gradientUnits="userSpaceOnUse" gradientTransform="matrix(1 0 0 1 0 0)"  cx="303.58" cy="23.37" r="218.98" fx="303.58" fy="23.37">
<stop offset="6%" style="stop-color:rgb(245,247,231);stop-opacity: 1"/>
<stop offset="18%" style="stop-color:rgb(184,208,155);stop-opacity: 1"/>
<stop offset="32%" style="stop-color:rgb(117,165,71);stop-opacity: 1"/>
<stop offset="38%" style="stop-color:rgb(90,148,38);stop-opacity: 1"/>
<stop offset="41%" style="stop-color:rgb(83,143,39);stop-opacity: 1"/>
<stop offset="73%" style="stop-color:rgb(7,89,49);stop-opacity: 1"/>
<stop offset="81%" style="stop-color:rgb(4,83,47);stop-opacity: 1"/>
<stop offset="99%" style="stop-color:rgb(1,76,45);stop-opacity: 1"/>
</radialGradient>
<path style="stroke: none; stroke-width: 1; stroke-dasharray: none; stroke-linecap: butt; stroke-dashoffset: 0; stroke-linejoin: miter; stroke-miterlimit: 4; fill: url(#SVGID_15); fill-rule: nonzero; opacity: 1;" vector-effect="non-scaling-stroke"  transform=" translate(-294.03, -132.43)" d="M 152 5.89 L 436.06 5.89 L 436.06 258.97 L 152 258.97 z" stroke-linecap="round" />
</g>
		<g transform="matrix(1 0 0 1 -289.97 -74.4)" clip-path="url(#CLIPPATH_34)"  >
<linearGradient id="SVGID_16" gradientUnits="userSpaceOnUse" gradientTransform="matrix(1 0 0 1 0 0)"  x1="420.7" y1="55.53" x2="249.31" y2="154.49">
<stop offset="0%" style="stop-color:rgb(230,234,209);stop-opacity: 1"/>
<stop offset="8%" style="stop-color:rgb(225,231,203);stop-opacity: 1"/>
<stop offset="18%" style="stop-color:rgb(212,223,187);stop-opacity: 1"/>
<stop offset="30%" style="stop-color:rgb(191,210,161);stop-opacity: 1"/>
<stop offset="42%" style="stop-color:rgb(161,192,125);stop-opacity: 1"/>
<stop offset="55.00000000000001%" style="stop-color:rgb(123,169,78);stop-opacity: 1"/>
<stop offset="61%" style="stop-color:rgb(101,155,51);stop-opacity: 1"/>
<stop offset="77%" style="stop-color:rgb(90,148,38);stop-opacity: 1"/>
<stop offset="81%" style="stop-color:rgb(63,129,42);stop-opacity: 1"/>
<stop offset="89%" style="stop-color:rgb(7,89,49);stop-opacity: 1"/>
<stop offset="99%" style="stop-color:rgb(1,76,45);stop-opacity: 1"/>
</linearGradient>
<clipPath id="CLIPPATH_34" >
	<path transform="matrix(1 0 0 1 -291.96 -444.22) translate(-294.03, -126.54)" d="M 152 0 L 436.06 0 L 436.06 253.08 L 152 253.08 z" stroke-linecap="round" />
</clipPath>
<path style="stroke: url(#SVGID_16); stroke-width: 4.53; stroke-dasharray: none; stroke-linecap: butt; stroke-dashoffset: 0; stroke-linejoin: miter; stroke-miterlimit: 10; fill: none; fill-rule: nonzero; opacity: 1;" vector-effect="non-scaling-stroke"  transform=" translate(-335.97, -105.16)" d="M 387.07 -2.08 C 387.07 -2.08 302.77 31.770000000000003 284.87 212.39999999999998" stroke-linecap="round" />
</g>
		<g transform="matrix(1 0 0 1 -304.06 -74.4)" clip-path="url(#CLIPPATH_35)"  >
<linearGradient id="SVGID_17" gradientUnits="userSpaceOnUse" gradientTransform="matrix(1 0 0 1 0 0)"  x1="406.6" y1="55.53" x2="235.21" y2="154.49">
<stop offset="0%" style="stop-color:rgb(230,234,209);stop-opacity: 1"/>
<stop offset="8%" style="stop-color:rgb(225,231,203);stop-opacity: 1"/>
<stop offset="18%" style="stop-color:rgb(212,223,187);stop-opacity: 1"/>
<stop offset="30%" style="stop-color:rgb(191,210,161);stop-opacity: 1"/>
<stop offset="42%" style="stop-color:rgb(161,192,125);stop-opacity: 1"/>
<stop offset="55.00000000000001%" style="stop-color:rgb(123,169,78);stop-opacity: 1"/>
<stop offset="61%" style="stop-color:rgb(101,155,51);stop-opacity: 1"/>
<stop offset="77%" style="stop-color:rgb(90,148,38);stop-opacity: 1"/>
<stop offset="81%" style="stop-color:rgb(63,129,42);stop-opacity: 1"/>
<stop offset="89%" style="stop-color:rgb(7,89,49);stop-opacity: 1"/>
<stop offset="99%" style="stop-color:rgb(1,76,45);stop-opacity: 1"/>
</linearGradient>
<clipPath id="CLIPPATH_35" >
	<path transform="matrix(1 0 0 1 -263.82 -444.22) translate(-294.03, -126.54)" d="M 152 0 L 436.06 0 L 436.06 253.08 L 152 253.08 z" stroke-linecap="round" />
</clipPath>
<path style="stroke: url(#SVGID_17); stroke-width: 4.53; stroke-dasharray: none; stroke-linecap: butt; stroke-dashoffset: 0; stroke-linejoin: miter; stroke-miterlimit: 10; fill: none; fill-rule: nonzero; opacity: 1;" vector-effect="non-scaling-stroke"  transform=" translate(-321.9, -105.16)" d="M 373 -2.08 C 373 -2.08 288.7 31.770000000000003 270.8 212.39999999999998" stroke-linecap="round" />
</g>
		<g transform="matrix(1 0 0 1 -315.66 -74.4)" clip-path="url(#CLIPPATH_36)"  >
<linearGradient id="SVGID_18" gradientUnits="userSpaceOnUse" gradientTransform="matrix(1 0 0 1 0 0)"  x1="395.02" y1="55.53" x2="223.63" y2="154.49">
<stop offset="0%" style="stop-color:rgb(230,234,209);stop-opacity: 1"/>
<stop offset="8%" style="stop-color:rgb(225,231,203);stop-opacity: 1"/>
<stop offset="18%" style="stop-color:rgb(212,223,187);stop-opacity: 1"/>
<stop offset="30%" style="stop-color:rgb(191,210,161);stop-opacity: 1"/>
<stop offset="42%" style="stop-color:rgb(161,192,125);stop-opacity: 1"/>
<stop offset="55.00000000000001%" style="stop-color:rgb(123,169,78);stop-opacity: 1"/>
<stop offset="61%" style="stop-color:rgb(101,155,51);stop-opacity: 1"/>
<stop offset="77%" style="stop-color:rgb(90,148,38);stop-opacity: 1"/>
<stop offset="81%" style="stop-color:rgb(63,129,42);stop-opacity: 1"/>
<stop offset="89%" style="stop-color:rgb(7,89,49);stop-opacity: 1"/>
<stop offset="99%" style="stop-color:rgb(1,76,45);stop-opacity: 1"/>
</linearGradient>
<clipPath id="CLIPPATH_36" >
	<path transform="matrix(1 0 0 1 -240.59 -444.22) translate(-294.03, -126.54)" d="M 152 0 L 436.06 0 L 436.06 253.08 L 152 253.08 z" stroke-linecap="round" />
</clipPath>
<path style="stroke: url(#SVGID_18); stroke-width: 4.53; stroke-dasharray: none; stroke-linecap: butt; stroke-dashoffset: 0; stroke-linejoin: miter; stroke-miterlimit: 10; fill: none; fill-rule: nonzero; opacity: 1;" vector-effect="non-scaling-stroke"  transform=" translate(-310.28, -105.16)" d="M 361.38 -2.08 C 361.38 -2.08 277.09 31.770000000000003 259.19 212.39999999999998" stroke-linecap="round" />
</g>
		<g transform="matrix(1 0 0 1 -329.74 -74.4)" clip-path="url(#CLIPPATH_37)"  >
<linearGradient id="SVGID_19" gradientUnits="userSpaceOnUse" gradientTransform="matrix(1 0 0 1 0 0)"  x1="380.94" y1="55.53" x2="209.55" y2="154.49">
<stop offset="0%" style="stop-color:rgb(230,234,209);stop-opacity: 1"/>
<stop offset="8%" style="stop-color:rgb(225,231,203);stop-opacity: 1"/>
<stop offset="18%" style="stop-color:rgb(212,223,187);stop-opacity: 1"/>
<stop offset="30%" style="stop-color:rgb(191,210,161);stop-opacity: 1"/>
<stop offset="42%" style="stop-color:rgb(161,192,125);stop-opacity: 1"/>
<stop offset="55.00000000000001%" style="stop-color:rgb(123,169,78);stop-opacity: 1"/>
<stop offset="61%" style="stop-color:rgb(101,155,51);stop-opacity: 1"/>
<stop offset="77%" style="stop-color:rgb(90,148,38);stop-opacity: 1"/>
<stop offset="81%" style="stop-color:rgb(63,129,42);stop-opacity: 1"/>
<stop offset="89%" style="stop-color:rgb(7,89,49);stop-opacity: 1"/>
<stop offset="99%" style="stop-color:rgb(1,76,45);stop-opacity: 1"/>
</linearGradient>
<clipPath id="CLIPPATH_37" >
	<path transform="matrix(1 0 0 1 -212.44 -444.22) translate(-294.03, -126.54)" d="M 152 0 L 436.06 0 L 436.06 253.08 L 152 253.08 z" stroke-linecap="round" />
</clipPath>
<path style="stroke: url(#SVGID_19); stroke-width: 4.53; stroke-dasharray: none; stroke-linecap: butt; stroke-dashoffset: 0; stroke-linejoin: miter; stroke-miterlimit: 10; fill: none; fill-rule: nonzero; opacity: 1;" vector-effect="non-scaling-stroke"  transform=" translate(-296.21, -105.16)" d="M 347.31 -2.08 C 347.31 -2.08 263 31.770000000000003 245.11 212.39999999999998" stroke-linecap="round" />
</g>
		<g transform="matrix(1 0 0 1 -342.45 -74.4)" clip-path="url(#CLIPPATH_38)"  >
<linearGradient id="SVGID_20" gradientUnits="userSpaceOnUse" gradientTransform="matrix(1 0 0 1 0 0)"  x1="368.24" y1="55.53" x2="196.85" y2="154.49">
<stop offset="0%" style="stop-color:rgb(230,234,209);stop-opacity: 1"/>
<stop offset="8%" style="stop-color:rgb(225,231,203);stop-opacity: 1"/>
<stop offset="18%" style="stop-color:rgb(212,223,187);stop-opacity: 1"/>
<stop offset="30%" style="stop-color:rgb(191,210,161);stop-opacity: 1"/>
<stop offset="42%" style="stop-color:rgb(161,192,125);stop-opacity: 1"/>
<stop offset="55.00000000000001%" style="stop-color:rgb(123,169,78);stop-opacity: 1"/>
<stop offset="61%" style="stop-color:rgb(101,155,51);stop-opacity: 1"/>
<stop offset="77%" style="stop-color:rgb(90,148,38);stop-opacity: 1"/>
<stop offset="81%" style="stop-color:rgb(63,129,42);stop-opacity: 1"/>
<stop offset="89%" style="stop-color:rgb(7,89,49);stop-opacity: 1"/>
<stop offset="99%" style="stop-color:rgb(1,76,45);stop-opacity: 1"/>
</linearGradient>
<clipPath id="CLIPPATH_38" >
	<path transform="matrix(1 0 0 1 -187.04 -444.22) translate(-294.03, -126.54)" d="M 152 0 L 436.06 0 L 436.06 253.08 L 152 253.08 z" stroke-linecap="round" />
</clipPath>
<path style="stroke: url(#SVGID_20); stroke-width: 4.53; stroke-dasharray: none; stroke-linecap: butt; stroke-dashoffset: 0; stroke-linejoin: miter; stroke-miterlimit: 10; fill: none; fill-rule: nonzero; opacity: 1;" vector-effect="non-scaling-stroke"  transform=" translate(-283.5, -105.16)" d="M 334.6 -2.08 C 334.6 -2.08 250.31 31.770000000000003 232.41000000000003 212.39999999999998" stroke-linecap="round" />
</g>
		<g transform="matrix(1 0 0 1 -355.18 -74.4)" clip-path="url(#CLIPPATH_39)"  >
<linearGradient id="SVGID_21" gradientUnits="userSpaceOnUse" gradientTransform="matrix(1 0 0 1 0 0)"  x1="355.5" y1="55.53" x2="184.11" y2="154.49">
<stop offset="0%" style="stop-color:rgb(230,234,209);stop-opacity: 1"/>
<stop offset="8%" style="stop-color:rgb(225,231,203);stop-opacity: 1"/>
<stop offset="18%" style="stop-color:rgb(212,223,187);stop-opacity: 1"/>
<stop offset="30%" style="stop-color:rgb(191,210,161);stop-opacity: 1"/>
<stop offset="42%" style="stop-color:rgb(161,192,125);stop-opacity: 1"/>
<stop offset="55.00000000000001%" style="stop-color:rgb(123,169,78);stop-opacity: 1"/>
<stop offset="61%" style="stop-color:rgb(101,155,51);stop-opacity: 1"/>
<stop offset="77%" style="stop-color:rgb(90,148,38);stop-opacity: 1"/>
<stop offset="81%" style="stop-color:rgb(63,129,42);stop-opacity: 1"/>
<stop offset="89%" style="stop-color:rgb(7,89,49);stop-opacity: 1"/>
<stop offset="99%" style="stop-color:rgb(1,76,45);stop-opacity: 1"/>
</linearGradient>
<clipPath id="CLIPPATH_39" >
	<path transform="matrix(1 0 0 1 -161.58 -444.22) translate(-294.03, -126.54)" d="M 152 0 L 436.06 0 L 436.06 253.08 L 152 253.08 z" stroke-linecap="round" />
</clipPath>
<path style="stroke: url(#SVGID_21); stroke-width: 4.53; stroke-dasharray: none; stroke-linecap: butt; stroke-dashoffset: 0; stroke-linejoin: miter; stroke-miterlimit: 10; fill: none; fill-rule: nonzero; opacity: 1;" vector-effect="non-scaling-stroke"  transform=" translate(-270.77, -105.16)" d="M 321.87 -2.08 C 321.87 -2.08 237.57999999999998 31.770000000000003 219.68 212.39999999999998" stroke-linecap="round" />
</g>
		<g transform="matrix(1 0 0 1 -368.19 -74.4)" clip-path="url(#CLIPPATH_40)"  >
<linearGradient id="SVGID_22" gradientUnits="userSpaceOnUse" gradientTransform="matrix(1 0 0 1 0 0)"  x1="342.48" y1="55.53" x2="171.09" y2="154.49">
<stop offset="0%" style="stop-color:rgb(230,234,209);stop-opacity: 1"/>
<stop offset="8%" style="stop-color:rgb(225,231,203);stop-opacity: 1"/>
<stop offset="18%" style="stop-color:rgb(212,223,187);stop-opacity: 1"/>
<stop offset="30%" style="stop-color:rgb(191,210,161);stop-opacity: 1"/>
<stop offset="42%" style="stop-color:rgb(161,192,125);stop-opacity: 1"/>
<stop offset="55.00000000000001%" style="stop-color:rgb(123,169,78);stop-opacity: 1"/>
<stop offset="61%" style="stop-color:rgb(101,155,51);stop-opacity: 1"/>
<stop offset="77%" style="stop-color:rgb(90,148,38);stop-opacity: 1"/>
<stop offset="81%" style="stop-color:rgb(63,129,42);stop-opacity: 1"/>
<stop offset="89%" style="stop-color:rgb(7,89,49);stop-opacity: 1"/>
<stop offset="99%" style="stop-color:rgb(1,76,45);stop-opacity: 1"/>
</linearGradient>
<clipPath id="CLIPPATH_40" >
	<path transform="matrix(1 0 0 1 -135.52 -444.22) translate(-294.03, -126.54)" d="M 152 0 L 436.06 0 L 436.06 253.08 L 152 253.08 z" stroke-linecap="round" />
</clipPath>
<path style="stroke: url(#SVGID_22); stroke-width: 4.53; stroke-dasharray: none; stroke-linecap: butt; stroke-dashoffset: 0; stroke-linejoin: miter; stroke-miterlimit: 10; fill: none; fill-rule: nonzero; opacity: 1;" vector-effect="non-scaling-stroke"  transform=" translate(-257.75, -105.16)" d="M 308.85 -2.08 C 308.85 -2.08 224.55 31.770000000000003 206.65000000000003 212.39999999999998" stroke-linecap="round" />
</g>
		<g transform="matrix(1 0 0 1 -379.53 -75.26)" clip-path="url(#CLIPPATH_41)"  >
<linearGradient id="SVGID_23" gradientUnits="userSpaceOnUse" gradientTransform="matrix(1 0 0 1 0 0)"  x1="332.52" y1="53.9" x2="158.42" y2="154.42">
<stop offset="0%" style="stop-color:rgb(230,234,209);stop-opacity: 1"/>
<stop offset="9%" style="stop-color:rgb(227,232,205);stop-opacity: 1"/>
<stop offset="19%" style="stop-color:rgb(216,226,192);stop-opacity: 1"/>
<stop offset="30%" style="stop-color:rgb(199,215,171);stop-opacity: 1"/>
<stop offset="40%" style="stop-color:rgb(175,200,142);stop-opacity: 1"/>
<stop offset="51%" style="stop-color:rgb(144,181,104);stop-opacity: 1"/>
<stop offset="61%" style="stop-color:rgb(106,158,58);stop-opacity: 1"/>
<stop offset="62%" style="stop-color:rgb(101,155,51);stop-opacity: 1"/>
<stop offset="73%" style="stop-color:rgb(90,148,38);stop-opacity: 1"/>
<stop offset="77%" style="stop-color:rgb(63,129,42);stop-opacity: 1"/>
<stop offset="83%" style="stop-color:rgb(7,89,49);stop-opacity: 1"/>
<stop offset="94%" style="stop-color:rgb(1,76,45);stop-opacity: 1"/>
</linearGradient>
<clipPath id="CLIPPATH_41" >
	<path transform="matrix(1 0 0 1 -112.88 -442.5) translate(-294.03, -126.54)" d="M 152 0 L 436.06 0 L 436.06 253.08 L 152 253.08 z" stroke-linecap="round" />
</clipPath>
<path style="stroke: url(#SVGID_23); stroke-width: 4.53; stroke-dasharray: none; stroke-linecap: butt; stroke-dashoffset: 0; stroke-linejoin: miter; stroke-miterlimit: 10; fill: none; fill-rule: nonzero; opacity: 1;" vector-effect="non-scaling-stroke"  transform=" translate(-246.43, -104.3)" d="M 298.86 -3.79 C 298.86 -3.79 211.92000000000002 31.770000000000003 194 212.4" stroke-linecap="round" />
</g>
		<g transform="matrix(1 0 0 1 -393.53 -75.26)" clip-path="url(#CLIPPATH_42)"  >
<linearGradient id="SVGID_24" gradientUnits="userSpaceOnUse" gradientTransform="matrix(1 0 0 1 0 0)"  x1="318.49" y1="53.9" x2="144.39" y2="154.42">
<stop offset="0%" style="stop-color:rgb(230,234,209);stop-opacity: 1"/>
<stop offset="7.000000000000001%" style="stop-color:rgb(225,231,203);stop-opacity: 1"/>
<stop offset="17%" style="stop-color:rgb(212,223,187);stop-opacity: 1"/>
<stop offset="27%" style="stop-color:rgb(191,210,161);stop-opacity: 1"/>
<stop offset="38%" style="stop-color:rgb(161,192,125);stop-opacity: 1"/>
<stop offset="50%" style="stop-color:rgb(123,169,78);stop-opacity: 1"/>
<stop offset="56.00000000000001%" style="stop-color:rgb(101,155,51);stop-opacity: 1"/>
<stop offset="69%" style="stop-color:rgb(90,148,38);stop-opacity: 1"/>
<stop offset="73%" style="stop-color:rgb(63,129,42);stop-opacity: 1"/>
<stop offset="80%" style="stop-color:rgb(7,89,49);stop-opacity: 1"/>
<stop offset="94%" style="stop-color:rgb(1,76,45);stop-opacity: 1"/>
</linearGradient>
<clipPath id="CLIPPATH_42" >
	<path transform="matrix(1 0 0 1 -84.85 -442.5) translate(-294.03, -126.54)" d="M 152 0 L 436.06 0 L 436.06 253.08 L 152 253.08 z" stroke-linecap="round" />
</clipPath>
<path style="stroke: url(#SVGID_24); stroke-width: 4.53; stroke-dasharray: none; stroke-linecap: butt; stroke-dashoffset: 0; stroke-linejoin: miter; stroke-miterlimit: 10; fill: none; fill-rule: nonzero; opacity: 1;" vector-effect="non-scaling-stroke"  transform=" translate(-232.41, -104.3)" d="M 284.83 -3.79 C 284.83 -3.79 197.89 31.770000000000003 180 212.4" stroke-linecap="round" />
</g>
</g>
</g>
</svg>